<svg version="1" xmlns="http://www.w3.org/2000/svg" width="1150.667" height="1150.667" viewBox="0 0 863.000000 863.000000"><path d="M424.4 65.3c-3.3 10.1-4.2 11.8-5.9 11.6-1.1-.1-6.7-.1-12.4 0l-10.4.1 10.1 7.4 10 7.4-1.5 4.4c-.8 2.4-2.5 7.6-3.8 11.6l-2.3 7.3 2.6-1.7c1.5-.9 5.8-4 9.7-6.7 3.8-2.8 7.4-5 8-5 .6 0 5.2 3 10.4 6.7 5.1 3.7 9.4 6.6 9.5 6.4.2-.2-1.4-5.4-3.4-11.6l-3.8-11.4 10-7.4 9.9-7.4-9.3-.1c-16.9-.2-14.8 1.1-19-10.9-2-5.8-3.8-11-4.1-11.5-.2-.6-2.1 4.3-4.3 10.8zM342.1 83.2c-.3 5.8-.6 9.8-.9 12.4-.1.5-3.5 1.8-7.4 2.9-13.6 3.4-13.5 3.2-2.8 7.4l9.5 3.8-.3 7.4c-.1 4.1-.4 8.6-.6 10.1-.4 3.8 1.1 2.7 7.4-5.3 3-3.8 6-6.9 6.5-6.9.6 0 4.5 1.4 8.8 3.1 4.4 1.6 8.2 2.9 8.7 2.7.4-.2-1.4-3.7-4.1-7.8-2.7-4.1-4.9-8-4.9-8.5 0-.6 1.7-3.1 3.8-5.6 6.5-8 8.2-10.3 7.9-10.6-.2-.1-4.5.9-9.6 2.2-5.1 1.4-9.4 2.5-9.5 2.5-.2 0-2.7-3.6-5.6-8-2.9-4.4-5.6-8-6-8-.4 0-.8 2.8-.9 6.2zM506.6 84.5c-2.7 4.2-5.2 7.7-5.6 8-.3.2-4.9-.7-10-2-5.2-1.3-9.5-2.3-9.7-2.2-.1.1 2.7 3.8 6.1 8.2l6.4 7.9-4.3 6.5c-2.3 3.6-4.7 7.6-5.4 8.8l-1.2 2.3 5.3-2.2c2.9-1.1 7.3-2.8 9.7-3.6l4.4-1.5 3.6 4.4c2 2.4 5 5.9 6.7 7.8l3.1 3.4-.5-10.4-.4-10.4 9.1-3.5c5-1.9 9.1-3.7 9.1-4 0-.3-4.3-1.7-9.5-3s-9.6-2.9-9.6-3.5c-.4-3.2-.7-9.6-.8-13.8-.1-2.6-.4-4.7-.8-4.7-.5 0-3 3.4-5.7 7.5zM284.5 108.5l.7 9-8.3 3.9-8.4 3.9 8.4 1.9c4.7 1 8.8 2.1 9.2 2.5.6.7 2 11.4 2.2 16 0 .7.2 1.3.3 1.3.2 0 2.2-3.3 4.5-7.3 2.4-3.9 4.4-7.4 4.6-7.6.1-.2 2.9.2 6 .8 3.2.7 7.1 1.5 8.7 1.8l2.8.5-2-3c-1.2-1.6-2.8-3.5-3.7-4.2-.9-.7-2.5-2.6-3.6-4.1l-1.9-2.8 4.4-7.5c2.5-4.2 4.3-7.6 4.1-7.6-.2 0-3.9 1.5-8.4 3.4l-8 3.5-6.1-6.7-6.1-6.7.6 9zM568.3 102.9c-1.5 1.5-4.2 4.4-6 6.4l-3.2 3.6-7.8-3.4c-4.3-1.9-7.9-3.2-8.1-3-.2.2 1.5 3.5 3.7 7.3 2.3 3.9 4.1 7.3 4.1 7.7 0 .3-1.3 2-2.9 3.8-5.7 6.2-8 9.1-7.6 9.5.2.2 4-.4 8.5-1.3 6.9-1.4 8.4-1.5 9.1-.3.5.7 2.5 4.1 4.5 7.6s3.7 6.2 3.9 6c.2-.2.6-3.5 1-7.3 1-10.8.9-10.7 7.5-11.9 7.8-1.3 10-1.9 10-2.6 0-.4-3.4-2.2-7.6-4l-7.6-3.3.7-8.1c.4-4.5.9-8.4 1.2-8.9 1-1.6-.7-.5-3.4 2.2zM411.9 124.4c-.2.2-4.9.6-10.4 1-5.5.3-11.1.8-12.5 1-1.4.3-4.8.7-7.7 1-2.8.3-5.7.8-6.5 1-.7.3-2.9.7-4.8 1-29.8 4.3-72.2 19.8-103.5 37.9-6.9 3.9-25.3 15.8-28.4 18.3-17.6 13.9-24.5 19.6-29 23.8-28.6 27-49.1 53.5-67 86.9-2.9 5.4-5.1 10-4.9 10.2.8.8 13.8 6.5 14.8 6.5.5 0 1-.4 1-.9 0-1.7 11.5-22 18.7-32.9 16.9-25.6 36-47 60.5-67.8 9.6-8.1 28-21 41.2-28.8 22.3-13.2 57.4-27.5 80.1-32.6 2.8-.7 5.9-1.4 7-1.6 6.4-1.6 29.5-5.4 36.6-6.1 10.8-1 51-1 61.4 0 21.9 2.2 58.2 10.2 71 15.7 1.1.4 5.8 2.3 10.5 4.1 68.5 26.4 130.3 82.6 161.6 147.1 1.6 3.2 3.3 5.8 4 5.8.6 0 4.1-1.4 7.8-3.1l6.6-3.1-1.6-3.6c-2.2-5.4-11.8-22.3-19.1-33.5-39.6-61.4-98.9-107.3-169.3-131-9.1-3.1-13.1-4.3-21-6.3-.8-.2-6.4-1.5-12.5-2.8-11.6-2.6-14.5-3.1-26.5-4.7-4.1-.5-9.3-1.2-11.5-1.5-4.5-.6-46.1-1.5-46.6-1z"/><path d="M318.4 219.2c.2 1.8-.3 4.5-1 6l-1.4 2.7-3.5-2c-5.1-3.1-12.1-4.9-15.7-4.2-1.8.3-5.2 2.6-7.9 5.2-2.6 2.6-5.4 4.5-6.1 4.3-.7-.2-2.3-1.6-3.5-3-2.5-2.9-3.5-2.5-3.5 1.3 0 1.6 1.2 4 3.3 6.1 3.2 3.3 3.4 3.9 3.3 10.2-.2 9.6-3.7 15.8-11.8 20.7-.9.5-2.1 2.5-2.6 4.3-.8 2.9-.5 3.7 2 6.5l2.8 3.2 14.4.5c12.1.5 14.9.9 18.4 2.7 10.9 5.8 22.7 21.7 35 47.3 3.4 6.9 6.8 13.1 7.7 13.8.8.7 4.6 2.3 8.4 3.5 7.6 2.5 7.3 1.7 5.8 13.7-.7 6.4-.8 8.1-.5 22.6.1 8.3-.6 10.2-7.8 21.1-5.3 8.1-8.5 15-7.5 16.5.7 1.2 14.2.9 16.4-.3 1.1-.6 2.9-3 3.9-5.4 2-4.7 2.4-6.8 4.5-25.7.8-8 10.3-36.3 12-36.3 1.5 0 5.5 7.9 9.1 18.3 1.9 5.3 4.5 11.7 5.8 14.2 3.4 6.4 5.9 15.5 5.1 18.9-.3 1.6-2.4 5.3-4.6 8.2-6.1 8.2-5.7 8.8 5.6 8.8 9.3 0 9.5-.1 10.8-2.7 1.8-3.5 1.4-12.6-.7-17.5-1.8-4.3-4.2-16.9-5.1-26.7-.4-3.6-.8-7.6-1-9-.2-1.4-.7-4.3-.9-6.5-.3-2.2-1-7.1-1.5-11-.6-3.8-.9-7.1-.7-7.2.1-.2 6.3 1.3 13.7 3.2 20.7 5.3 34.1 7.4 44.4 7 5-.1 9.9-.5 11-.8 2.7-.7 24.2-5.5 28-6.2 6.8-1.4 20.4-3.1 22.1-2.9 4.5.7 6.4 1.6 7.4 3.5 1.1 1.9 1.5 15 .6 19.4-.5 2.5-1.4 8.8-2.1 14-.3 2.2-.7 8-.9 12.8-.6 10.8-2.5 15-8.6 19.2-4.1 2.8-7.6 8.7-6.4 10.6.2.4 3.9.7 8.3.8 8.7.2 9.8-.3 13-6.8 2.1-4.1 6-16.3 8.5-26.6 1.9-7.7 7.5-20.1 9.1-19.9.6 0 2.1 2.3 3.4 4.9 3.2 6.8 4.2 24.4 1.6 29.6-1 1.9-2.1 3.6-2.5 3.9-1.6 1-6 10.4-6 12.6 0 2.3.2 2.4 8.4 2.4h8.4l1.6-3.4c1.2-2.6 1.5-5.9 1.3-13.7-.2-10.4.2-15.4 2.8-31.3.2-1.6.7-7 1.1-12.1l.6-9.1-4.7-11.8c-2.6-6.6-4.9-13.9-5-16.5-.4-6.5 12.6-56.5 13.8-53.1 2.2 5.9 2.5 14.8 1.4 32-.2 3.5.3 7.4 1.4 10.6 1.7 5.1 1.7 5.2-.6 7.6-3.3 3.6-4.5 6.3-4.5 10 0 3.9 2.9 10.6 5.7 13 1.8 1.7 1.9 1.6 2-1.6.1-1.8 1.3-5.2 2.9-7.6 3.6-5.5 3.6-10.8-.3-18.1-2.8-5.4-2.8-5.6-2.8-23.9 0-17.6-.1-19-2.9-27.5-6.9-21.9-14.3-29.4-32.4-32.7-11-2-134.7-1.3-175.7 1-19.1 1-33 .7-41.7-1.2-4.2-.9-8-1.6-8.3-1.6-.4 0-.4-2.4-.1-5.3.4-5.4-.8-9.7-3.1-10.4-.8-.3-1.1.7-.9 2.9zM328.5 450.7c-9.4 3.2-14.7 11.7-14.6 23.7 0 10.3 4.2 17.3 19.8 33.1 10.2 10.3 13.9 16.6 13 22.3-.7 4.3-4.6 8.2-8.2 8.2-6.4 0-10.4-3.9-10.8-10.8-.2-4.7-.7-4.8-10.1-3.6l-4.6.7v4.6c0 9.6 7.2 19.4 16.3 22.1 9.1 2.7 20.2.4 25.7-5.5 4.6-4.9 6.8-11.3 6.5-18.9-.3-10.6-2.7-14.7-18.9-31.7-11.8-12.5-14-16.3-13.4-23.1.4-3.2 1.2-5.4 2.4-6.3 2-1.5 6.1-1.9 8.9-.9 2.3.9 4.5 5.7 4.5 9.9 0 3.9.2 4 9.9 2.8l5.3-.6-.6-5.8c-1.2-12.9-8.9-20.5-21.3-21.2-3.2-.2-7.6.2-9.8 1zM121.4 450.8l-6.1.3V551h42.6l-.2-7c-.1-4-.6-7-1.2-7.1-.5 0-6.5-.1-13.2-.2-10.3 0-12.2-.3-12.5-1.6-.2-.9-.4-20.1-.3-42.8 0-35.9-.2-41.2-1.5-41.5-.8-.2-4.2-.2-7.6 0zM187.8 450.8c-5.6.3-5.7.4-6.3 3.5-.3 1.8-.7 4.5-1 6.2-.3 1.6-.8 4.3-1 6-.3 1.6-3.6 21.3-7.3 43.7l-6.8 40.8h15.3l1.3-9.3c.8-5 1.5-9.5 1.6-10 .1-.4.2-1.2.3-1.7.1-.8 15.9-1.6 16.2-.8 0 .2.8 5 1.7 10.8l1.7 10.5 7.8.3c4.2.2 7.7 0 7.7-.3 0-.4-1.6-10.2-3.5-21.8-2-11.7-3.8-22.6-4.1-24.2-.2-1.7-.9-5.5-1.4-8.5-1.7-10.5-2.1-12.5-3-18.5-.5-3.3-1.4-8.7-2-12-.6-3.3-1.3-7.8-1.6-10-.4-2.2-.7-4.1-.8-4.2-.4-.5-9.5-.8-14.8-.5zm5 24.9c-.1 1.8 1 9.6 1.7 12.3.2.8.7 3.9 1 6.9.4 3 .8 6.1 1 7 .1.9.6 4 1 6.8l.7 5.3h-12.4l.8-4.3c.4-2.3.8-5.1 1-6.2.5-4.2 1.5-11.1 1.9-13 .1-1.1.7-4.5 1.1-7.5.4-3 .9-5.8 1-6.3.1-.4.2-1.2.3-1.7.2-1.7 1-1.1.9.7zM265.9 450.8l-5.6.3.1 49.7.1 49.7 21.6.3 21.5.2v-7c-.1-3.9-.5-7-1.1-7.1-.5-.1-6.8-.2-14-.3l-13-.1v-29l10-.2c5.5-.1 10.5-.2 11.2-.2.8-.1 1.2-2.3 1.2-7.1v-7H287c-7.7 0-10.9-.4-11.2-1.3-.2-.6-.4-6.8-.4-13.7l.1-12.5 14.1-.3 14-.3V458l-.1-7H300c-1.9-.1-9.1-.2-16-.3-6.9-.1-15-.1-18.1.1zM379.9 450.8l-5.6.3V551h15.3l-.1-20.3v-20.3h5c11.7.3 19.7-3.5 24.3-11.3 2.5-4.2 2.7-5.6 2.9-16.7.4-16.5-1.5-21.7-9.7-27.6-5-3.7-15-4.9-32.1-4zm23.8 16.8c2.8 2.2 2.8 2.4 2.8 12.9 0 10.7 0 10.7-3 13.1-2.5 2-3.9 2.4-8.5 2.2l-5.5-.3-.1-14.5c0-8 .2-14.8.4-15.3.2-.4 2.8-.7 5.7-.6 3.9.2 6.1.8 8.2 2.5zM436 451c-.4.3-.7 22.9-.7 50.2V551h43.3v-6.8c0-3.7-.4-6.9-.7-7.2-.4-.3-6.6-.4-13.7-.4-12.6.2-13 .1-13.4-2-.3-1.7-.2-24.8.1-26.7.1-.3 4.5-.6 9.9-.6 5.3-.1 10.2-.2 10.8-.2.7-.1 1.2-2.7 1.3-7.1l.1-7h-11c-6 0-11-.3-11.1-.8-.4-2.3-.4-24.9-.1-26 .3-.9 4-1.2 14.1-1.2h13.6l.1-7c0-4.2-.4-7-1.1-7-14-.4-40.9-.4-41.5 0zM494.9 450.8l-4.6.3.1 49.7.1 49.7 7.5.3 7.6.3-.1-20.5v-20.5l2.3-.4c3.1-.6 6.2.2 6.3 1.7.1 1.8.5 3.5 3.2 13.1 1.3 4.9 3.5 12.9 4.8 17.7l2.4 8.8h7.7c4.3 0 7.8-.3 7.8-.6 0-.5-5.3-19.4-9.5-33.9-2.8-9.9-2.9-9.7.9-13.8 5.3-5.8 6.6-11 6.3-24.7-.2-11-.4-11.9-3.2-16.6-4.8-7.6-11-10.4-24.5-10.7-5.8-.1-12.6-.1-15.1.1zm24.8 16.8c2.6 2.1 2.8 2.7 3 11.1.2 9.9-.5 12.5-4 14.8-2.9 1.8-12.6 2.7-12.8 1.1-.4-3.2-.5-27.3-.1-28.4.8-2.2 10.6-1.3 13.9 1.4zM568.3 450.8c-1.8.2-3.3.6-3.4 1 0 .4-.2 1.6-.5 2.7-.2 1.1-.6 4-1 6.5-.3 2.5-.8 5.4-1 6.5-.6 2.8-5.2 31.1-5.9 36-.3 2.2-.8 4.6-1.1 5.4-.2.7-.7 3.2-.9 5.5-.3 2.2-1.8 11.4-3.3 20.3l-2.8 16.3h7.8c4.3 0 7.8-.4 7.8-.9 0-1.1 1.9-14.7 2.5-17.6.2-1.1.4-2.3.4-2.8.1-.4 4-.7 8.8-.7 4.7 0 8.4.2 8.1.5-.3.3-.1 2.7.4 5.3.4 2.6 1.1 6.9 1.4 9.7.4 2.7.8 5.3 1.1 5.7.2.5 3.8.8 7.9.8h7.6l-.7-4.3c-.4-2.3-.9-5.1-1.1-6.2-.2-1.1-1-6.3-1.9-11.5-.9-5.2-1.8-10.6-2-12-.5-3.3-3.5-20.9-4-24-.3-1.4-1.2-7-2.1-12.5-.9-5.5-1.7-10.5-1.8-11-.1-.6-.8-4.9-1.6-9.8-1-6.6-1.7-8.7-2.9-8.8-6.1-.3-13.1-.4-15.8-.1zm9.7 40.7c1.2 8.2 2.4 16.7 2.7 18.7l.6 3.8h-12.5l.6-2.8c.3-1.5.7-4.3 1-6.2.2-1.9 1.2-8.7 2.2-15 .9-6.3 1.6-12.4 1.6-13.4-.1-1.1.3-1.5.8-1 .4.5 1.8 7.6 3 15.9zM615.4 450.8l-2.2.3V551h7.3c5 0 7.4-.4 7.7-1.3.2-.6.3-14.6.2-31-.1-16.3 0-29.7.2-29.7.3 0 4.2 12.1 13.9 43.5 2.4 7.7 4.6 15 5 16.3.6 2.2 1.1 2.3 8.8 2l8.2-.3V451h-15v32.5c0 17.8-.3 32.1-.6 31.7-.3-.4-3.2-9.9-6.4-21.2-3.1-11.3-6.3-22.5-7.1-25-.7-2.5-2.3-7.7-3.4-11.5l-2-7h-6.3c-3.4 0-7.2.1-8.3.3zM678.2 451.5c-.3.5-.7 3.8-.7 7.2l-.1 6.3h14.3c7.9 0 14.3.2 14.3.4 0 .6-21.7 56-23.1 59.1-3.5 7.7-5.6 15.6-5.5 20.5l.2 5.5 22.7.3 22.7.2v-14.5l-14 .1c-7.7 0-14-.2-14-.5 0-.6 16.1-42 18.5-47.6 6.2-14.4 9.4-24.5 9.6-30.2.1-3.5 0-6.5-.3-6.8-1-1.1-44-1-44.6 0zM755.8 450.8l-7.7.3-.6 3.2c-.3 1.8-.7 4.5-1 6.2-.5 3.2-3.3 19.9-4.1 25-.2 1.6-1.1 6.6-1.9 11-.7 4.4-1.6 9.3-1.9 11-1 6.6-4.6 28.1-5 30-.2 1.1-.7 4.2-1 6.9-.4 2.7-.9 5.3-1.2 5.8-.3.4 3.1.8 7.5.8 7.9 0 8.1-.1 8.2-2.5.1-1.4.2-2.8.3-3.3.1-.4.5-3.4 1-6.7 1.2-10.1.6-9.5 10.3-9.5 4.8 0 8.4.2 8.1.5-.3.3-.1 2.7.4 5.3.4 2.6 1.1 6.9 1.4 9.7.4 2.7.8 5.3 1.1 5.7.2.5 3.8.8 8 .8h7.5l-.6-3.3c-.3-1.7-.8-5-1.1-7.2-.4-2.2-.8-4.7-1-5.5-.3-.8-.9-4.4-1.4-8-.5-3.6-1.7-10.6-2.5-15.5-.8-5-2-11.9-2.6-15.5-.6-3.6-1.7-10.3-2.5-15-.8-4.7-2.2-13.3-3.1-19.2-2-12.2-1-11.5-14.6-11zm3.5 30.2c.4 3 1.1 8 1.7 11 .5 3 1.2 7.1 1.4 9 .2 1.9.7 5.6 1.1 8.2l.7 4.8h-6.1c-6.1 0-6.1 0-5.7-2.8.3-1.5 1-6.3 1.6-10.7.6-4.4 1.3-9.1 1.5-10.5.2-1.4.7-4.5 1-7 .7-4.9 1.5-8.3 2-7.8.1.2.5 2.8.8 5.8zM198.1 599.2c-1.8.5-5.7 2.6-8.5 4.6-2.8 2.1-6.1 4.4-7.2 5.2-8.7 6-14.2 10.1-16.2 11.8-5.4 4.7-4.7 13.8 1.3 19.1 4.9 4.3 9.9 4.2 17.1-.2 2.9-1.7 5.4-3.4 5.4-3.7 0-.3-1.1-1.9-2.4-3.5-2.1-2.6-2.7-2.8-4.3-1.8-5.5 3.8-7.6 4.5-9.9 3.4-2.4-1.1-3.2-4.4-1.6-6.7 1.6-2.4 28.2-20.4 30.1-20.4 1.1 0 2.7 1 3.5 2.1 1.9 2.7.5 5.9-3.5 8.3-3.5 2.1-3.5 2.3-.5 6l2.3 3 4.1-3c9.3-6.6 8.7-18.6-1.3-23.4-2.3-1.1-4.3-2-4.6-1.9-.2 0-1.9.5-3.8 1.1zM644.8 606.9c-1.6 2.2-2.8 4.3-2.8 4.8 0 .4 8.9 9.5 19.7 20.1l19.8 19.3 2.7-3.3 2.6-3.3-4.4-4c-2.4-2.3-4.4-4.5-4.4-5 .1-.6 1.2-2.3 2.5-4l2.4-2.9 3.8 1.9c7.1 3.6 7 3.6 9.8-.1l2.6-3.4-10.3-4.9c-5.7-2.7-17-8.1-25.1-12-8.2-3.9-15.2-7.1-15.5-7.1-.4 0-1.9 1.8-3.4 3.9zm30.2 18.2c0 .4-.8 1.7-1.8 2.9l-1.7 2.1-8-7.5-8-7.6 9.8 4.7c5.3 2.6 9.7 5 9.7 5.4zM426.9 610.7c-4.2 1.6-8.9 8.4-8.9 12.8 0 7.5 6.9 14.5 14.4 14.5 10.7 0 17.4-10.6 12.7-20.2-3.3-7-11.1-10-18.2-7.1zM398.7 613.6c-.2.2-9.1 1.1-19.2 1.9-3.3.3-7.6.7-9.5 1-1.9.3-6.6.7-10.5 1-3.8.3-8.1.8-9.5 1-1.4.3-6.3.7-11 1-4.7.3-9.6.8-11 1-1.4.2-5.9.7-10 1.1-4.1.3-8.4.8-9.5.9-1.1.1-3.9.3-6.2.4-4.7.1-6 1.7-1.5 1.8 3.3 0 16.4 1.2 21.2 1.8 1.9.2 6.2.7 9.5 1 6.2.6 10.9 1 20.5 2 3 .3 7.9.8 10.8 1 9.2.9 16.6 1.6 20.7 2 2.2.2 6.6.7 9.8 1 3.1.3 8.1.8 11 1.1l5.3.5-.1-11V613l-5.3.2c-2.9.2-5.4.3-5.5.4zM457.4 624v11.1l4.5-.5c4.1-.5 12.4-1.3 22.1-2.1 7-.6 17.5-1.7 19.6-2 1.2-.2 6.1-.6 11-1 4.9-.3 10-.8 11.4-1 1.4-.3 6.1-.7 10.5-1.1 4.4-.3 8.8-.8 9.7-.9.9-.2 5.7-.7 10.5-1 4.8-.4 9.2-1 9.6-1.5.5-.4-2.7-1.1-7-1.4-8.7-.8-14.6-1.4-21.3-2.1-2.5-.3-7.2-.8-10.5-1.1-3.3-.3-7.3-.7-9-.9-1.6-.2-6.6-.6-11-1-4.4-.3-9.3-.8-11-1-1.6-.2-6.6-.7-11-1-4.4-.4-9.1-.8-10.5-1.1-1.4-.2-5.9-.6-10.1-1l-7.5-.6V624zM631.7 623.1l-2.5 3.1 3.6 3.1c2 1.8 3.9 3.4 4.2 3.7.3.3 3.4 3 7 6 10.6 9 11.2 9.5 18 15.4 9.2 8.1 9.4 8.1 12.4 4.5l2.6-3.1-7.7-6.5c-4.3-3.6-10.5-8.9-13.8-11.8-3.3-2.9-7.6-6.5-9.5-8.1-1.9-1.6-5.1-4.3-7-6.1-1.9-1.8-3.8-3.3-4.1-3.3-.3 0-1.8 1.4-3.2 3.1zM200.8 636.8c-12.5 7.6-23 14.1-23.3 14.4-.4.3.6 2 2 3.7l2.7 3 5.3-3.4 5.4-3.4 2.5 3.4c1.4 1.8 2.6 3.8 2.6 4.2 0 .5-1.6 2.4-3.5 4.3s-3.5 3.8-3.5 4.4c0 .5 1.2 2.2 2.6 3.7l2.6 2.8 3.7-4.3c2-2.3 5.3-6.2 7.3-8.7 2-2.4 8.4-10 14.2-16.9 5.8-6.9 10.6-12.8 10.6-13.2 0-1.3-6.2-7.8-7.4-7.8-.6.1-11.3 6.3-23.8 13.8zm16.3-.1c-.6 1-3.3 4.3-6 7.3-2.8 3-5.1 5.8-5.1 6.2 0 1.5-2.7.8-4.6-1.3-1.6-1.8-1.7-2.2-.4-2.9.8-.5 4.9-3.1 9-5.9 8.8-5.8 8.3-5.6 7.1-3.4zM618.5 637.8c-2.8 2.1-6.1 5.1-7.4 6.6l-2.5 2.6 5 5.3c17.6 18.2 30.2 31.2 31.9 32.9 1.9 1.8 2 1.8 4.9-1.1l3-3-7.5-7.6c-7.8-8-8.9-9.9-6.4-10.8 1.8-.7 4.5.1 4.5 1.4 0 .5.6.9 1.3.9.7 0 2.8 1 4.7 2.3 1.9 1.3 5.1 3.3 7 4.5l3.5 2.1 3.4-3c1.9-1.6 3.2-3.1 3-3.3-.2-.2-2.4-1.4-4.8-2.7-2.4-1.3-5.1-2.9-6-3.4-.9-.6-3.8-2.3-6.4-3.8-3.9-2.3-4.7-3.3-4.7-5.8 0-4.1-2-7.6-7.4-12.8-3.7-3.7-5.2-4.5-9.3-4.8-4.5-.5-5.2-.2-9.8 3.5zm14.1 8.6c2.4 2.4 4.4 4.8 4.4 5.4 0 .6-1.2 2.4-2.6 4.1l-2.6 3.1-5.8-6.1-5.7-6.2 2.6-2.3c1.4-1.3 3.2-2.4 4-2.4.7 0 3.3 2 5.7 4.4zM232.2 642.8c-2.7 3.1-10.9 12.4-18.1 20.7L201 678.4l2.9 2.9c3.4 3.4 2.6 3.9 12.6-7.6 5.2-6.1 6-6.6 7.4-5.3 1.3 1.4 1 2.6-3.7 12.2l-5.1 10.6 3.2 2.9 3.2 3 5.2-10.8c2.9-5.9 5.4-11.1 5.5-11.5.2-.4 1.8-1 3.7-1.3 4.9-.8 6.4-1.9 11.1-7.5 7.4-8.9 6.9-15.1-2.1-22.9-7.9-6.7-7.1-6.7-12.7-.3zm11.3 13.1c-1.1 3.4-6.5 9.1-8.6 9.1-2.1 0-6.9-2.8-6.9-4 0-.4 2.2-3.2 5-6.1 2.7-3 5-5.8 5-6.4 0-.5 1.4.4 3.1 2.1 2.4 2.4 2.9 3.7 2.4 5.3zM604.8 650.2c-.7.7-4.6 3.9-8.6 7.1-7.5 6.1-7.8 6.9-3.9 10.9.7.7 8 9.7 16.1 20l14.9 18.7 6.6-5.2c3.7-2.9 8-6.2 9.5-7.5l2.9-2.2-2.4-2.8c-1.3-1.5-2.5-2.9-2.6-3.1-.1-.2-2.9 1.8-6.3 4.5s-6.4 4.3-6.8 3.8c-.5-.5-2.8-3.3-5.2-6.2l-4.3-5.4 3.3-2.6c1.9-1.5 4-3.2 4.9-3.8 1.2-1 1.1-1.5-.8-4.3-2.4-3.4-2.6-3.3-8.2 1.1-2 1.5-3.9 2.8-4.2 2.8-.8 0-8.7-10.6-8.7-11.6 0-.5 2.5-2.7 5.5-4.9s5.4-4.3 5.5-4.6c0-1-4.1-5.9-5-5.9-.5 0-1.5.6-2.2 1.2zM242.7 679.2L227 701.4l2.7 2.3c1.6 1.2 3.1 2.2 3.5 2.3.4 0 5.1-6.1 10.4-13.5 5.3-7.4 9.7-13.5 9.9-13.5.2 0-2.1 7.3-5.1 16.2-5.5 16.5-6.1 18.8-4.6 18.8.5 0 1.9.9 3.2 2 1.9 1.7 2.6 1.8 3.6.8 2.9-3 30.7-42.4 30.8-43.5.1-.7-1.2-2.2-2.9-3.2l-3-2-9.9 14c-5.5 7.6-10.1 13.8-10.2 13.6-.3-.3 4.5-14.4 10-29.6.9-2.4 1.5-4.5 1.4-4.6-.2-.1-1.7-1.1-3.5-2.3-1.7-1.2-3.5-2.2-4-2.1-.4 0-7.9 10-16.6 22.1zM581.6 668.3l-2.8 2.3 9.6 14.7c9.4 14.4 9.8 16.1 2.5 9.5-6-5.5-16.8-15-19.3-16.9-2.2-1.8-2.4-1.7-6 .7l-3.7 2.5 2.3 3.7c1.2 2 6.8 10.7 12.3 19.2 5.6 8.5 11.4 17.4 12.8 19.7l2.7 4.2 3.5-2c4.1-2.4 4.5-1.1-5.9-17.2-9.4-14.4-9.5-14.6-7-12.6 17.6 14.6 25.4 20.9 25.9 20.9.3 0 2.1-1 4-2.3l3.3-2.3-4.4-6.9c-16.3-25.3-25.7-39.5-26.3-39.5-.3 0-1.9 1-3.5 2.3zM276.5 690.6c-4.9 8.6-11.1 19.2-13.7 23.7-2.7 4.5-4.8 8.5-4.8 8.8 0 .6 7.1 4.2 7.4 3.7.1-.2 5.5-9.5 12-20.8s12.7-21.9 13.7-23.6l1.9-3.2-3.5-2.1c-2-1.2-3.7-2.1-3.8-2.1-.1 0-4.2 7-9.2 15.6zM554.5 684.7c-1.6.8-3.2 1.7-3.3 1.9-.2.1 3.4 7.6 8.1 16.6 4.7 9 10.4 20 12.7 24.5 2.3 4.6 4.4 8.3 4.7 8.3.3 0 1.9-.8 3.6-1.8 1.8-.9 3.3-1.7 3.4-1.8.2 0-2.6-5.6-6.2-12.5-3.5-6.8-9.2-17.9-12.7-24.6-3.5-6.8-6.5-12.3-6.8-12.3-.3.1-1.8.8-3.5 1.7zM298.5 686.9c-3.8 1.6-4.6 2.8-17.2 27.4-2.8 5.5-4.6 10.3-4.7 12.6-.2 9.4 10.9 16 19.4 11.6 2.4-1.3 9-10.4 9-12.6 0-.3-1.6-1.3-3.5-2.2l-3.6-1.7-1.7 3.1c-3.5 6.4-4.6 7.3-7.8 6.2-1.8-.6-3-1.8-3.2-3.1-.3-2.2 13.9-31.2 16.4-33.3 2.1-1.7 6.3-.3 7 2.5.3 1.4-.1 3.7-1 5.4-2.1 4.1-2.1 4.4 1.6 6.5 2.5 1.4 3.3 1.5 4 .5 6.4-9.6 5.2-17.7-3.3-22-3.6-1.9-8.1-2.2-11.4-.9zM535.7 693.5c-2 .7-4.4 1.9-5.3 2.6-2.2 1.8-4.4 6.4-4.4 9.3 0 1.3 3.4 10 7.5 19.3 8.7 19.4 11.1 22.3 18.3 22.3 5.6 0 10.4-2.9 12.7-7.5 1.9-4.1 1.6-7.3-1.3-13.9l-2.1-4.6-3.6 1.7c-2.4 1.2-3.5 2.2-3.1 3.3.2.8 1.1 3.3 2 5.5 1.4 3.7 1.3 4.1-.4 6-1.6 1.5-2.5 1.7-4.6 1-2.5-1-4.5-4.7-15.3-29-1.9-4.3-1.9-5.3.2-7.3 3-2.7 6-1.4 8.6 3.6l2 4 3.6-1.6c3.8-1.8 3.9-2.9.6-8.6-3.3-5.9-9.3-8.3-15.4-6.1zM323.2 696.7c-1.5 2.7-20.2 49.6-19.9 49.9.4.4 21.3 8.4 21.9 8.4.3 0 1.1-1.5 1.7-3.2 1-2.8.9-3.5-.6-4.5-.9-.7-2.1-1.3-2.5-1.3-.5 0-2.9-.9-5.3-2l-4.5-2 2.1-5.3c1.2-2.8 2.5-6.2 3-7.4l.8-2.3 4.7 2c6.1 2.6 6.9 2.5 8.4-1.1 1.5-3.5 1.1-4-5.3-6.3-3.8-1.4-4.7-2.2-4.2-3.5.4-.9 1.6-4 2.7-6.9 1.2-2.8 2.7-5.2 3.4-5.2.7 0 3.9 1.1 7 2.5s5.8 2.5 6.1 2.5c.5 0 3.5-7.1 3.1-7.4-.2-.2-5.7-2.4-20.5-8.3-.6-.2-1.6.4-2.1 1.4zM507.4 703.9c-4.8 2.2-7.4 5.8-7.6 10.8-.2 4.9 8.6 34.8 11.4 38.9 3.9 5.7 11.3 6.6 18.4 2.3 3.5-2.1 5.4-5.6 5.4-10.2 0-4-8.6-34.3-10.6-37.4-3.5-5.5-10.5-7.3-17-4.4zm11.9 14.7c1.9 6.3 6.5 22.5 7.4 26.1.6 2.6-2.8 6.3-5.4 5.8-1-.2-2.1-.4-2.5-.4-1.5-.2-11.3-34.4-10.4-36.6.3-.8 1.6-1.9 2.8-2.4 3.6-1.4 6.1.9 8.1 7.5zM339.9 730.5c-4.2 14.6-7.4 26.7-7 26.9.3.2 2.2.7 4.2 1.1l3.6.7 2.9-10.7c2.5-9.3 3.1-10.5 4.9-10.3 1.9.3 2 1.1 2.2 11.3 0 6 .1 11.5.2 12.1.1.6 1.9 1.6 4.1 2.2l4 1v-25.4l2.9-1.7c4.5-2.7 7.4-9.8 7.5-18.5.1-4.8-.2-5.7-3-8.1-2.6-2.3-14.9-7.1-18.1-7.1-.4 0-4.2 11.9-8.4 26.5zm18.5-15.4c3.2 1.5 3.6 3.3 1.8 9.4-1.6 5.5-2.5 6.5-6.2 6.5-4.7 0-5-.9-2.7-9.3 2.1-8 2.7-8.6 7.1-6.6zM486 710.1c-4.7.9-10.2 2-12.2 2.3-3.6.6-3.7.8-3.1 3.9.8 4.4 1.3 4.7 5.8 3.7 2.2-.5 4-.8 4.1-.7 0 .1 1.5 8.3 3.3 18.2 1.8 9.9 3.7 20.4 4.3 23.3l1.2 5.4 3.5-.7c2-.4 3.8-.9 4-1.1.4-.4-4.8-30.8-7.6-44.7-.3-1.5-.2-2.7.3-2.5.5.1 2.6-.1 4.7-.6 3.4-.6 3.8-1 3.3-2.9-.3-1.2-.6-2.9-.6-3.8 0-1.9-.3-1.9-11 .2zM375.7 711.7c-.2.4-.8 3-1.1 5.6-.4 2.7-1 5.9-1.2 7-.7 3.3-5.5 29.6-7 38.3-.4 2.9-.2 3.2 2.7 3.8 4.8.9 5.5.8 5.6-1.3.1-1 2.2-13.1 4.7-26.8 2.5-13.8 4.6-25.2 4.6-25.5 0-.2-.6-.5-1.2-.5-.7 0-2.5-.4-3.9-.8-1.5-.3-2.9-.3-3.2.2zM395.6 718.9c-5.9 18.1-14.6 48.3-14.1 49 .2.5 2 1.1 4 1.3 3.4.4 3.4.4 5.3-5.6l1.8-6.1 3.9.3c2.2.2 4.2.6 4.4.8.2.2.5 2.9.6 6.1.1 5.2.4 5.8 2.6 6.4 6.4 1.8 6.1 2.9 5.4-18.4-.4-10.5-.8-22.9-1-27.5-.1-4.6-.6-8.7-1.1-9.2-.5-.4-3-1-5.6-1.3l-4.7-.4-1.5 4.6zM401 739v11h-3c-1.6 0-3-.3-3-.6 0-1.2 5.4-21.4 5.7-21.4.2 0 .3 4.9.3 11zM451 716c-.4.3-2 4.9-3.6 10.2-1.5 5.4-2.9 9.6-3.2 9.4-.2-.3-1.8-4.6-3.5-9.8l-3.2-9.3-4.3-.3c-2.8-.2-4.2.1-4.2.9 0 .7 2.5 7.8 5.6 15.8 5.7 14.8 6.2 17 6.3 32.2l.1 6.6 3.3-.2c1.7-.2 3.7-.3 4.2-.4.6-.1.9-4.3.7-11.4-.4-11.3-.4-11.4 4.7-27.2 2.8-8.7 5.1-16.2 5.1-16.5 0-.8-6.8-.8-8 0z"/></svg>